<svg id="svg" version="1.1" xmlns="http://www.w3.org/2000/svg" xmlns:xlink="http://www.w3.org/1999/xlink" width="400" height="400" viewBox="0, 0, 400,400"><g id="svgg"><path id="path0" d="M0.000 200.000 L 0.000 400.000 200.000 400.000 L 400.000 400.000 400.000 200.000 L 400.000 0.000 200.000 0.000 L 0.000 0.000 0.000 200.000 M360.200 200.000 L 360.200 360.200 200.000 360.200 L 39.800 360.200 39.698 200.400 C 39.641 112.510,39.681 40.375,39.785 40.100 C 39.937 39.700,72.207 39.619,200.088 39.700 L 360.200 39.800 360.200 200.000 M120.400 200.000 L 120.400 279.600 200.000 279.600 L 279.600 279.600 279.600 200.000 L 279.600 120.400 200.000 120.400 L 120.400 120.400 120.400 200.000 M173.600 152.531 C 178.751 153.951,180.632 156.126,183.174 163.600 C 183.884 165.690,184.613 167.760,184.794 168.200 C 184.974 168.640,185.514 170.080,185.993 171.400 C 186.472 172.720,187.030 174.113,187.232 174.495 C 187.434 174.877,187.600 175.464,187.600 175.800 C 187.600 176.136,187.766 176.723,187.968 177.105 C 188.170 177.487,188.725 178.880,189.200 180.200 C 189.675 181.520,190.230 182.913,190.432 183.295 C 190.634 183.677,190.800 184.264,190.800 184.600 C 190.800 184.936,190.966 185.523,191.168 185.905 C 191.370 186.287,191.928 187.680,192.407 189.000 C 192.886 190.320,193.428 191.760,193.612 192.200 C 193.796 192.640,194.514 194.620,195.209 196.600 C 195.903 198.580,197.445 202.820,198.636 206.021 C 199.826 209.223,200.800 212.137,200.800 212.498 C 200.800 212.858,200.940 213.240,201.112 213.346 C 201.283 213.452,201.868 214.902,202.412 216.568 C 203.411 219.630,203.840 220.175,204.251 218.900 C 205.001 216.570,206.652 212.274,207.247 211.105 C 207.441 210.723,207.600 210.220,207.600 209.986 C 207.600 209.752,207.960 208.816,208.400 207.906 C 208.840 206.995,209.200 206.011,209.200 205.719 C 209.200 205.428,209.366 204.877,209.568 204.495 C 209.770 204.113,210.339 202.720,210.830 201.400 C 211.322 200.080,211.877 198.829,212.062 198.620 C 212.248 198.411,212.400 197.914,212.400 197.515 C 212.400 197.116,212.566 196.477,212.769 196.095 C 212.972 195.713,213.674 193.960,214.330 192.200 C 214.986 190.440,216.260 187.071,217.161 184.713 C 218.063 182.355,218.800 180.313,218.800 180.174 C 218.800 180.035,219.050 179.354,219.354 178.660 C 219.659 177.967,220.307 176.320,220.793 175.000 C 221.280 173.680,221.865 172.150,222.093 171.600 C 222.683 170.177,223.051 169.200,223.600 167.600 C 224.182 165.907,224.771 164.440,225.247 163.505 C 225.441 163.123,225.600 162.536,225.600 162.200 C 225.600 161.864,225.768 161.277,225.974 160.895 C 226.179 160.513,226.583 159.615,226.871 158.900 C 227.160 158.185,227.531 157.600,227.698 157.600 C 227.864 157.600,228.000 157.347,228.000 157.037 C 228.000 156.004,231.765 153.027,233.738 152.500 C 236.521 151.757,253.846 151.809,255.651 152.565 C 257.023 153.140,258.122 154.203,259.200 156.000 C 259.877 157.128,260.356 243.479,259.699 246.086 C 258.677 250.149,241.855 250.373,241.047 246.335 C 240.911 245.656,240.800 228.303,240.800 207.774 C 240.800 183.321,240.662 170.362,240.400 170.200 C 240.180 170.064,240.000 170.313,240.000 170.753 C 240.000 171.193,239.820 171.664,239.600 171.800 C 239.380 171.936,239.200 172.476,239.200 173.000 C 239.200 173.524,239.020 174.064,238.800 174.200 C 238.580 174.336,238.400 174.876,238.400 175.400 C 238.400 175.924,238.241 176.451,238.048 176.570 C 237.854 176.690,237.602 177.196,237.488 177.694 C 237.258 178.696,233.811 188.533,233.246 189.800 C 233.049 190.240,232.053 193.030,231.032 196.000 C 230.010 198.970,229.000 201.713,228.787 202.095 C 228.574 202.477,228.400 203.116,228.400 203.515 C 228.400 203.914,228.257 204.411,228.082 204.620 C 227.907 204.829,227.535 205.720,227.255 206.600 C 226.976 207.480,226.588 208.560,226.394 209.000 C 226.199 209.440,225.771 210.610,225.442 211.600 C 224.288 215.075,223.328 217.605,223.065 217.868 C 222.919 218.014,222.800 218.517,222.800 218.987 C 222.800 219.456,222.657 220.011,222.482 220.220 C 222.307 220.429,221.934 221.320,221.653 222.200 C 221.372 223.080,220.809 224.700,220.400 225.800 C 219.992 226.900,219.119 229.330,218.461 231.200 C 214.153 243.431,213.092 246.297,212.579 247.084 C 210.136 250.830,192.800 249.519,192.800 245.588 C 192.800 245.181,192.656 244.758,192.479 244.649 C 192.303 244.540,191.907 243.528,191.600 242.400 C 191.293 241.272,190.897 240.260,190.721 240.151 C 190.544 240.042,190.400 239.601,190.400 239.171 C 190.400 238.741,190.224 238.077,190.009 237.695 C 189.794 237.313,189.175 235.650,188.632 234.000 C 188.090 232.350,186.087 226.500,184.182 221.000 C 182.276 215.500,180.621 210.550,180.505 210.000 C 180.388 209.450,180.169 208.820,180.018 208.600 C 179.868 208.380,179.500 207.390,179.202 206.400 C 178.905 205.410,178.512 204.429,178.330 204.220 C 178.149 204.011,178.000 203.437,178.000 202.944 C 178.000 202.451,177.820 201.936,177.600 201.800 C 177.380 201.664,177.200 201.124,177.200 200.600 C 177.200 200.076,177.056 199.558,176.879 199.449 C 176.703 199.340,176.307 198.328,176.000 197.200 C 175.693 196.072,175.297 195.060,175.121 194.951 C 174.944 194.842,174.800 194.324,174.800 193.800 C 174.800 193.276,174.620 192.736,174.400 192.600 C 174.180 192.464,174.000 192.001,174.000 191.571 C 174.000 191.141,173.826 190.477,173.613 190.095 C 173.254 189.448,169.823 179.525,167.910 173.600 C 167.449 172.170,166.920 170.829,166.736 170.620 C 166.551 170.411,166.400 187.184,166.400 207.894 C 166.400 231.868,166.256 245.928,166.003 246.593 C 164.771 249.833,148.789 250.127,147.574 246.932 C 147.326 246.279,147.223 229.603,147.292 201.189 L 147.400 156.474 148.632 154.952 C 150.958 152.079,151.045 152.060,162.000 152.047 C 168.599 152.039,172.388 152.197,173.600 152.531 " stroke="none" fill="#fbfbfb" fill-rule="evenodd"></path><path id="path1" d="M40.585 40.900 C 40.481 41.175,40.441 112.950,40.498 200.400 L 40.600 359.400 200.000 359.400 L 359.400 359.400 359.400 200.000 L 359.400 40.600 200.088 40.500 C 72.847 40.419,40.737 40.500,40.585 40.900 M280.600 200.000 L 280.600 280.600 200.000 280.600 L 119.400 280.600 119.297 200.400 C 119.241 156.290,119.281 119.975,119.385 119.699 C 119.537 119.300,135.888 119.219,200.088 119.299 L 280.600 119.400 280.600 200.000 M151.248 153.554 C 150.505 153.950,149.470 154.978,148.950 155.837 L 148.004 157.400 148.002 202.120 L 148.000 246.841 149.500 247.513 C 151.554 248.434,161.992 248.488,163.800 247.587 L 165.000 246.990 165.242 211.595 C 165.549 166.588,165.539 167.200,165.925 167.200 C 166.392 167.200,167.624 170.232,169.583 176.200 C 171.633 182.446,172.737 185.560,173.232 186.495 C 173.434 186.877,173.600 187.541,173.600 187.971 C 173.600 188.401,173.780 188.864,174.000 189.000 C 174.220 189.136,174.400 189.689,174.400 190.229 C 174.400 190.769,174.580 191.568,174.800 192.005 C 175.020 192.442,175.380 193.158,175.600 193.595 C 175.820 194.032,176.000 194.752,176.000 195.195 C 176.000 195.638,176.180 196.000,176.400 196.000 C 176.620 196.000,176.800 196.452,176.800 197.005 C 176.800 197.558,176.959 198.323,177.153 198.705 C 177.786 199.949,178.338 201.369,178.823 203.000 C 179.084 203.880,179.456 204.913,179.649 205.295 C 179.842 205.677,180.000 206.341,180.000 206.771 C 180.000 207.201,180.146 207.643,180.325 207.754 C 180.503 207.864,181.065 209.270,181.572 210.877 C 182.080 212.485,182.647 214.160,182.833 214.600 C 183.371 215.877,186.395 224.770,187.185 227.400 C 187.818 229.510,188.491 231.412,189.590 234.200 C 189.763 234.640,190.319 236.350,190.824 238.000 C 191.330 239.650,191.892 241.171,192.072 241.380 C 192.252 241.589,192.400 242.174,192.400 242.680 C 192.400 243.186,192.580 243.600,192.800 243.600 C 193.020 243.600,193.200 244.074,193.200 244.653 C 193.200 247.069,196.851 248.400,203.478 248.400 C 210.032 248.400,211.858 247.644,212.923 244.490 C 213.274 243.451,214.218 240.800,215.020 238.600 C 215.822 236.400,216.573 234.192,216.687 233.694 C 216.802 233.196,217.054 232.690,217.248 232.570 C 217.441 232.451,217.600 232.027,217.600 231.630 C 217.600 230.938,218.871 227.366,219.636 225.905 C 219.836 225.523,220.000 224.884,220.000 224.485 C 220.000 224.086,220.143 223.589,220.318 223.380 C 220.493 223.171,220.865 222.280,221.145 221.400 C 221.676 219.726,222.250 218.278,222.847 217.105 C 223.041 216.723,223.200 216.078,223.200 215.672 C 223.200 215.266,223.319 214.814,223.465 214.668 C 223.756 214.378,224.485 212.405,226.667 206.000 C 227.455 203.690,228.256 201.629,228.449 201.420 C 228.642 201.211,228.800 200.656,228.800 200.187 C 228.800 199.717,228.909 199.224,229.042 199.091 C 229.317 198.816,232.775 189.079,233.090 187.694 C 233.203 187.196,233.454 186.690,233.648 186.570 C 233.841 186.451,234.000 186.027,234.000 185.630 C 234.000 184.938,235.271 181.366,236.036 179.905 C 236.236 179.523,236.400 178.859,236.400 178.429 C 236.400 177.999,236.580 177.536,236.800 177.400 C 237.020 177.264,237.200 176.885,237.200 176.557 C 237.200 176.229,237.560 175.216,238.000 174.306 C 238.440 173.395,238.800 172.334,238.800 171.948 C 238.800 171.563,238.980 171.136,239.200 171.000 C 239.420 170.864,239.600 170.439,239.600 170.056 C 239.600 168.991,240.538 167.207,241.100 167.203 C 241.497 167.201,241.600 175.416,241.600 206.954 L 241.600 246.709 243.100 247.454 C 244.356 248.078,245.545 248.200,250.400 248.200 C 255.255 248.200,256.444 248.078,257.700 247.454 L 259.200 246.709 259.200 202.349 C 259.200 177.473,259.045 157.684,258.847 157.295 C 258.652 156.913,258.274 156.128,258.006 155.551 C 256.735 152.812,239.638 151.337,233.480 153.435 C 231.552 154.092,227.600 157.857,227.600 159.038 C 227.600 159.353,227.441 159.923,227.247 160.305 C 227.052 160.687,226.671 161.540,226.400 162.200 C 226.129 162.860,225.748 163.713,225.553 164.095 C 225.359 164.477,225.200 165.064,225.200 165.400 C 225.200 165.736,225.041 166.323,224.847 166.705 C 224.652 167.087,224.292 167.895,224.047 168.500 C 223.801 169.105,223.399 170.095,223.153 170.700 C 222.908 171.305,222.548 172.113,222.353 172.495 C 222.159 172.877,222.000 173.464,222.000 173.800 C 222.000 174.136,221.827 174.723,221.615 175.105 C 221.403 175.487,220.585 177.600,219.798 179.800 C 219.011 182.000,218.212 184.160,218.022 184.600 C 217.833 185.040,217.283 186.480,216.800 187.800 C 215.765 190.629,215.236 191.945,214.753 192.895 C 214.559 193.277,214.400 193.864,214.400 194.200 C 214.400 194.536,214.241 195.123,214.047 195.505 C 213.852 195.887,213.492 196.695,213.247 197.300 C 213.001 197.905,212.599 198.895,212.353 199.500 C 212.108 200.105,211.748 200.913,211.553 201.295 C 211.359 201.677,211.200 202.341,211.200 202.771 C 211.200 203.201,211.020 203.664,210.800 203.800 C 210.580 203.936,210.400 204.397,210.400 204.824 C 210.400 205.251,210.220 205.600,210.000 205.600 C 209.780 205.600,209.600 205.962,209.600 206.405 C 209.600 206.848,209.420 207.568,209.200 208.005 C 208.980 208.442,208.620 209.158,208.400 209.595 C 208.180 210.032,208.000 210.656,208.000 210.982 C 208.000 211.309,207.640 212.217,207.200 213.000 C 206.760 213.783,206.400 214.743,206.400 215.132 C 206.400 215.521,206.251 216.011,206.070 216.220 C 205.888 216.429,205.498 217.368,205.204 218.306 C 204.244 221.362,203.276 221.506,202.401 218.720 C 202.104 217.774,201.712 216.829,201.530 216.620 C 201.349 216.411,201.200 215.862,201.200 215.400 C 201.200 214.938,201.044 214.389,200.853 214.180 C 200.662 213.971,200.049 212.450,199.489 210.800 C 198.929 209.150,197.555 205.341,196.436 202.335 C 195.316 199.329,194.400 196.594,194.400 196.258 C 194.400 195.922,194.220 195.536,194.000 195.400 C 193.780 195.264,193.600 194.837,193.600 194.452 C 193.600 194.066,193.240 193.005,192.800 192.094 C 192.360 191.184,192.000 190.171,192.000 189.843 C 192.000 189.515,191.820 189.136,191.600 189.000 C 191.380 188.864,191.200 188.401,191.200 187.971 C 191.200 187.541,191.041 186.877,190.847 186.495 C 190.652 186.113,190.271 185.260,190.000 184.600 C 189.729 183.940,189.348 183.087,189.153 182.705 C 188.959 182.323,188.800 181.659,188.800 181.229 C 188.800 180.799,188.620 180.336,188.400 180.200 C 188.180 180.064,188.000 179.637,188.000 179.252 C 188.000 178.866,187.640 177.805,187.200 176.894 C 186.760 175.984,186.400 174.971,186.400 174.643 C 186.400 174.315,186.220 173.936,186.000 173.800 C 185.780 173.664,185.600 173.201,185.600 172.771 C 185.600 172.341,185.434 171.677,185.232 171.295 C 185.030 170.913,184.475 169.520,184.000 168.200 C 183.525 166.880,182.970 165.487,182.768 165.105 C 182.566 164.723,182.400 164.187,182.400 163.914 C 182.400 159.769,178.273 154.824,173.600 153.369 C 170.647 152.450,153.047 152.595,151.248 153.554 " stroke="none" fill="#040404" fill-rule="evenodd"></path><path id="path2" d="M119.785 120.099 C 119.681 120.375,119.641 156.510,119.697 200.400 L 119.800 280.200 200.000 280.200 L 280.200 280.200 280.200 200.000 L 280.200 119.800 200.088 119.699 C 136.208 119.618,119.937 119.700,119.785 120.099 M280.000 200.000 L 280.000 280.000 200.000 280.000 L 120.000 280.000 120.000 200.000 L 120.000 120.000 200.000 120.000 L 280.000 120.000 280.000 200.000 M259.393 202.400 C 259.393 226.710,259.441 236.655,259.500 224.500 C 259.559 212.345,259.559 192.455,259.500 180.300 C 259.441 168.145,259.393 178.090,259.393 202.400 M240.415 168.457 C 239.978 169.354,239.986 169.362,240.578 168.624 C 241.142 167.920,241.209 171.525,241.298 207.224 L 241.396 246.600 241.500 207.422 C 241.601 169.454,241.510 166.207,240.415 168.457 M165.892 168.242 C 165.731 168.402,165.644 185.918,165.698 207.167 L 165.796 245.800 165.900 207.453 C 165.999 171.040,166.039 169.133,166.702 169.653 C 167.308 170.128,167.341 170.121,166.954 169.600 C 166.708 169.270,166.434 168.764,166.345 168.475 C 166.256 168.186,166.052 168.081,165.892 168.242 " stroke="none" fill="#626262" fill-rule="evenodd"></path><path id="path3" d="M40.000 200.000 L 40.000 360.000 200.000 360.000 L 360.000 360.000 360.000 200.000 L 360.000 40.000 200.000 40.000 L 40.000 40.000 40.000 200.000 M359.400 200.000 L 359.400 359.400 200.000 359.400 L 40.600 359.400 40.498 200.400 C 40.441 112.950,40.481 41.175,40.585 40.900 C 40.737 40.500,72.847 40.419,200.088 40.500 L 359.400 40.600 359.400 200.000 M119.385 119.699 C 119.281 119.975,119.241 156.290,119.297 200.400 L 119.400 280.600 200.000 280.600 L 280.600 280.600 280.600 200.000 L 280.600 119.400 200.088 119.299 C 135.888 119.219,119.537 119.300,119.385 119.699 M280.200 200.000 L 280.200 280.200 200.000 280.200 L 119.800 280.200 119.697 200.400 C 119.641 156.510,119.681 120.375,119.785 120.099 C 119.937 119.700,136.208 119.618,200.088 119.699 L 280.200 119.800 280.200 200.000 M152.262 152.700 C 152.160 152.865,156.813 153.000,162.601 153.000 C 168.389 153.000,172.916 152.868,172.662 152.706 C 172.052 152.318,152.501 152.312,152.262 152.700 M238.400 152.680 C 246.804 152.964,255.109 152.974,254.939 152.700 C 254.837 152.535,250.308 152.437,244.876 152.482 C 239.444 152.527,236.530 152.616,238.400 152.680 M148.787 155.421 C 148.304 156.203,147.977 156.911,148.061 156.994 C 148.145 157.078,148.620 156.438,149.118 155.573 C 150.247 153.613,149.980 153.490,148.787 155.421 M230.399 154.900 C 229.849 155.395,229.138 156.160,228.818 156.600 C 228.499 157.040,228.994 156.688,229.919 155.819 C 231.455 154.374,231.781 153.999,231.500 154.000 C 231.445 154.001,230.950 154.406,230.399 154.900 M147.793 202.600 C 147.793 226.800,147.841 236.641,147.900 224.469 C 147.959 212.297,147.959 192.497,147.900 180.469 C 147.841 168.441,147.793 178.400,147.793 202.600 M165.600 167.824 C 165.600 168.167,165.747 168.356,165.927 168.245 C 166.107 168.134,166.585 168.845,166.989 169.826 C 167.393 170.807,167.795 171.538,167.881 171.452 C 167.968 171.366,167.636 170.374,167.144 169.248 C 166.260 167.223,165.600 166.614,165.600 167.824 M218.067 183.580 C 217.833 184.251,217.727 184.800,217.831 184.800 C 218.101 184.800,218.856 182.722,218.657 182.524 C 218.567 182.433,218.301 182.908,218.067 183.580 M234.249 184.215 C 234.112 184.573,234.015 185.166,234.034 185.533 C 234.053 185.900,234.227 185.669,234.421 185.020 C 234.798 183.758,234.665 183.133,234.249 184.215 M165.298 215.220 C 165.235 235.356,165.057 246.813,164.801 247.121 C 164.577 247.393,164.665 247.377,165.004 247.085 C 165.531 246.630,165.592 242.695,165.500 215.183 L 165.395 183.800 165.298 215.220 M181.844 212.600 C 182.173 214.071,182.402 214.390,182.394 213.367 C 182.391 212.945,182.205 212.330,181.982 212.000 C 181.685 211.562,181.648 211.724,181.844 212.600 M183.429 217.200 C 183.576 217.750,183.864 218.470,184.067 218.800 C 184.325 219.217,184.357 219.095,184.171 218.400 C 184.024 217.850,183.736 217.130,183.533 216.800 C 183.275 216.383,183.243 216.505,183.429 217.200 M202.806 219.876 C 202.795 220.709,203.653 220.918,204.324 220.247 C 204.691 219.881,204.775 219.600,204.519 219.600 C 204.270 219.600,203.975 219.825,203.864 220.100 C 203.711 220.476,203.556 220.452,203.237 220.000 C 202.975 219.631,202.810 219.583,202.806 219.876 M218.258 229.304 C 217.896 230.252,217.606 231.291,217.614 231.613 C 217.622 231.936,217.980 231.223,218.410 230.029 C 219.338 227.448,219.206 226.821,218.258 229.304 M215.600 236.503 C 215.600 236.559,215.423 237.222,215.207 237.976 C 214.991 238.729,214.968 239.178,215.155 238.973 C 215.564 238.526,216.103 236.400,215.808 236.400 C 215.693 236.400,215.600 236.446,215.600 236.503 M150.000 248.005 C 150.330 248.216,151.125 248.391,151.767 248.394 C 153.314 248.402,152.977 248.171,151.000 247.868 C 149.910 247.701,149.591 247.745,150.000 248.005 M196.400 248.005 C 196.730 248.216,197.525 248.391,198.167 248.394 C 199.714 248.402,199.377 248.171,197.400 247.868 C 196.310 247.701,195.991 247.745,196.400 248.005 M208.800 248.000 C 207.416 248.291,207.414 248.295,208.600 248.341 C 209.260 248.367,210.070 248.213,210.400 248.000 C 211.066 247.570,210.845 247.570,208.800 248.000 M243.600 248.005 C 243.930 248.216,244.725 248.391,245.367 248.394 C 246.914 248.402,246.577 248.171,244.600 247.868 C 243.510 247.701,243.191 247.745,243.600 248.005 M255.600 248.000 C 254.216 248.291,254.214 248.295,255.400 248.341 C 256.060 248.367,256.870 248.213,257.200 248.000 C 257.866 247.570,257.645 247.570,255.600 248.000 M160.900 248.276 C 161.285 248.376,161.915 248.376,162.300 248.276 C 162.685 248.175,162.370 248.093,161.600 248.093 C 160.830 248.093,160.515 248.175,160.900 248.276 M155.500 248.689 C 156.215 248.778,157.385 248.778,158.100 248.689 C 158.815 248.601,158.230 248.528,156.800 248.528 C 155.370 248.528,154.785 248.601,155.500 248.689 M201.891 248.689 C 202.601 248.777,203.861 248.779,204.691 248.692 C 205.521 248.605,204.940 248.533,203.400 248.531 C 201.860 248.529,201.181 248.600,201.891 248.689 M249.100 248.689 C 249.815 248.778,250.985 248.778,251.700 248.689 C 252.415 248.601,251.830 248.528,250.400 248.528 C 248.970 248.528,248.385 248.601,249.100 248.689 " stroke="none" fill="#343434" fill-rule="evenodd"></path><path id="path4" d="M39.785 40.100 C 39.681 40.375,39.641 112.510,39.698 200.400 L 39.800 360.200 200.000 360.200 L 360.200 360.200 360.200 200.000 L 360.200 39.800 200.088 39.700 C 72.207 39.619,39.937 39.700,39.785 40.100 M360.000 200.000 L 360.000 360.000 200.000 360.000 L 40.000 360.000 40.000 200.000 L 40.000 40.000 200.000 40.000 L 360.000 40.000 360.000 200.000 M120.000 200.000 L 120.000 280.000 200.000 280.000 L 280.000 280.000 280.000 200.000 L 280.000 120.000 200.000 120.000 L 120.000 120.000 120.000 200.000 M279.600 200.000 L 279.600 279.600 200.000 279.600 L 120.400 279.600 120.400 200.000 L 120.400 120.400 200.000 120.400 L 279.600 120.400 279.600 200.000 M151.190 152.621 C 150.634 152.916,149.734 153.662,149.191 154.279 L 148.203 155.400 149.401 154.381 C 151.650 152.469,152.079 152.401,162.600 152.291 L 172.600 152.185 162.400 152.135 C 154.561 152.096,151.966 152.209,151.190 152.621 M239.700 152.299 C 242.505 152.368,247.095 152.368,249.900 152.299 C 252.705 152.230,250.410 152.174,244.800 152.174 C 239.190 152.174,236.895 152.230,239.700 152.299 M173.200 152.794 C 173.530 153.011,174.119 153.191,174.508 153.194 C 176.262 153.209,179.700 156.220,181.137 159.000 C 181.592 159.880,181.973 160.458,181.982 160.284 C 182.060 158.895,178.984 155.023,176.794 153.753 C 175.350 152.916,172.037 152.032,173.200 152.794 M232.914 152.680 C 232.038 152.850,228.000 156.205,228.000 156.764 C 228.000 156.923,228.899 156.186,229.999 155.126 C 231.098 154.067,232.313 153.197,232.699 153.194 C 233.084 153.191,233.670 153.013,234.000 152.800 C 234.616 152.402,234.449 152.383,232.914 152.680 M255.403 152.805 C 255.537 153.022,255.891 153.200,256.188 153.200 C 256.486 153.200,257.195 153.754,257.764 154.431 C 258.334 155.108,258.800 155.501,258.800 155.306 C 258.800 154.817,256.763 152.975,255.879 152.663 C 255.451 152.512,255.258 152.570,255.403 152.805 M259.152 157.287 C 259.337 158.398,259.393 158.455,259.519 157.654 C 259.601 157.133,259.503 156.543,259.301 156.341 C 259.079 156.119,259.021 156.493,259.152 157.287 M147.393 202.200 C 147.393 226.620,147.441 236.551,147.500 224.269 C 147.559 211.987,147.559 192.007,147.500 179.869 C 147.441 167.731,147.393 177.780,147.393 202.200 M259.793 202.800 C 259.793 226.450,259.841 236.125,259.900 224.300 C 259.959 212.475,259.959 193.125,259.900 181.300 C 259.841 169.475,259.793 179.150,259.793 202.800 M182.844 163.400 C 182.858 164.123,184.300 167.698,184.370 167.185 C 184.387 167.066,184.046 165.986,183.614 164.785 C 183.182 163.583,182.836 162.960,182.844 163.400 M240.473 168.831 C 240.105 169.420,240.077 169.811,240.375 170.170 C 240.661 170.515,240.829 182.749,240.900 208.439 L 241.004 246.200 241.102 207.100 C 241.156 185.595,241.153 168.000,241.096 168.000 C 241.039 168.000,240.759 168.374,240.473 168.831 M166.000 206.901 C 166.000 247.525,166.022 246.943,164.447 247.799 C 163.871 248.112,163.605 248.375,163.856 248.384 C 164.106 248.393,164.736 248.056,165.256 247.635 L 166.200 246.871 166.306 208.615 C 166.375 183.626,166.549 170.445,166.806 170.604 C 167.434 170.992,167.261 170.149,166.600 169.600 C 166.067 169.158,166.000 173.347,166.000 206.901 M222.558 170.300 C 222.439 170.685,222.175 171.313,221.971 171.695 C 221.767 172.077,221.601 172.617,221.602 172.895 C 221.605 173.515,222.573 171.712,222.893 170.489 C 223.166 169.443,222.875 169.278,222.558 170.300 M186.012 172.400 C 186.012 172.730,186.187 173.270,186.400 173.600 C 186.745 174.133,186.788 174.133,186.788 173.600 C 186.788 173.270,186.613 172.730,186.400 172.400 C 186.055 171.867,186.012 171.867,186.012 172.400 M168.257 174.700 C 168.578 175.992,169.562 178.346,169.584 177.875 C 169.608 177.389,168.333 173.600,168.146 173.600 C 168.057 173.600,168.107 174.095,168.257 174.700 M220.867 174.780 C 220.633 175.451,220.527 176.000,220.631 176.000 C 220.901 176.000,221.656 173.922,221.457 173.724 C 221.367 173.633,221.101 174.108,220.867 174.780 M186.828 174.676 C 186.918 175.715,187.544 176.596,187.572 175.724 C 187.587 175.242,187.420 174.736,187.200 174.600 C 186.980 174.464,186.813 174.498,186.828 174.676 M238.046 175.067 C 238.021 175.324,237.884 175.864,237.741 176.267 C 237.540 176.836,237.594 176.897,237.979 176.542 C 238.252 176.291,238.389 175.751,238.284 175.342 C 238.179 174.934,238.072 174.810,238.046 175.067 M220.046 177.020 C 220.021 177.471,219.840 178.011,219.645 178.220 C 219.450 178.429,219.173 179.050,219.031 179.600 C 218.880 180.182,219.116 179.934,219.597 179.006 C 220.051 178.129,220.348 177.139,220.258 176.806 C 220.152 176.419,220.076 176.497,220.046 177.020 M237.000 178.000 C 236.850 178.473,236.817 178.950,236.927 179.060 C 237.037 179.170,237.250 178.873,237.400 178.400 C 237.550 177.927,237.583 177.450,237.473 177.340 C 237.363 177.230,237.150 177.527,237.000 178.000 M169.600 178.465 C 169.600 178.574,170.422 181.079,171.426 184.032 C 172.430 186.984,173.335 189.651,173.436 189.957 C 173.536 190.264,173.701 190.433,173.801 190.332 C 173.901 190.232,173.085 187.565,171.988 184.405 C 170.229 179.340,169.600 177.775,169.600 178.465 M234.600 184.800 C 234.450 185.273,234.417 185.750,234.527 185.860 C 234.637 185.970,234.850 185.673,235.000 185.200 C 235.150 184.727,235.183 184.250,235.073 184.140 C 234.963 184.030,234.750 184.327,234.600 184.800 M216.846 185.067 C 216.821 185.324,216.684 185.864,216.541 186.267 C 216.340 186.836,216.394 186.897,216.779 186.542 C 217.052 186.291,217.189 185.751,217.084 185.342 C 216.979 184.934,216.872 184.810,216.846 185.067 M233.867 186.667 C 233.720 186.813,233.611 187.308,233.625 187.767 C 233.649 188.533,233.682 188.523,234.034 187.642 C 234.426 186.663,234.344 186.189,233.867 186.667 M215.800 188.000 C 215.650 188.473,215.617 188.950,215.727 189.060 C 215.837 189.170,216.050 188.873,216.200 188.400 C 216.350 187.927,216.383 187.450,216.273 187.340 C 216.163 187.230,215.950 187.527,215.800 188.000 M191.600 187.792 C 191.600 187.989,192.614 190.773,193.206 192.200 C 193.389 192.640,193.848 193.859,194.227 194.909 C 194.606 195.959,194.987 196.746,195.074 196.659 C 195.216 196.518,194.538 194.476,193.594 192.200 C 193.411 191.760,192.954 190.545,192.577 189.500 C 191.976 187.835,191.600 187.177,191.600 187.792 M174.016 191.476 C 174.007 191.958,174.180 192.464,174.400 192.600 C 174.620 192.736,174.800 193.276,174.800 193.800 C 174.800 194.324,174.987 194.868,175.216 195.010 C 175.699 195.308,175.358 193.667,174.551 191.800 C 174.109 190.780,174.029 190.731,174.016 191.476 M231.467 193.467 C 231.320 193.613,231.211 194.108,231.225 194.567 C 231.249 195.333,231.282 195.323,231.634 194.442 C 232.026 193.463,231.944 192.989,231.467 193.467 M213.400 194.400 C 213.250 194.873,213.217 195.350,213.327 195.460 C 213.437 195.570,213.650 195.273,213.800 194.800 C 213.950 194.327,213.983 193.850,213.873 193.740 C 213.763 193.630,213.550 193.927,213.400 194.400 M195.231 197.400 C 195.206 197.935,196.183 200.717,196.514 201.047 C 196.658 201.191,196.619 200.789,196.428 200.154 C 195.925 198.481,195.254 196.935,195.231 197.400 M229.644 198.844 C 229.398 199.551,229.266 200.200,229.352 200.285 C 229.438 200.371,229.709 199.862,229.956 199.156 C 230.202 198.449,230.334 197.800,230.248 197.715 C 230.162 197.629,229.891 198.138,229.644 198.844 M178.028 203.076 C 178.013 203.558,178.180 204.064,178.400 204.200 C 178.873 204.492,178.873 204.101,178.400 203.000 C 178.069 202.229,178.055 202.231,178.028 203.076 M228.032 203.420 C 228.014 203.871,227.843 204.411,227.652 204.620 C 227.460 204.829,227.195 205.540,227.062 206.200 C 226.831 207.353,226.838 207.361,227.259 206.400 C 227.499 205.850,227.875 205.013,228.094 204.539 C 228.314 204.066,228.396 203.436,228.278 203.139 C 228.148 202.812,228.051 202.923,228.032 203.420 M198.445 206.400 C 198.453 206.730,198.806 207.720,199.229 208.600 C 199.652 209.480,199.886 209.762,199.749 209.226 C 199.373 207.761,198.429 205.714,198.445 206.400 M224.826 212.299 C 223.504 216.149,223.453 216.337,223.920 215.600 C 224.476 214.722,226.101 209.968,225.910 209.777 C 225.821 209.687,225.333 210.822,224.826 212.299 M200.012 210.800 C 200.012 211.130,200.187 211.670,200.400 212.000 C 200.745 212.533,200.788 212.533,200.788 212.000 C 200.788 211.670,200.613 211.130,200.400 210.800 C 200.055 210.267,200.012 210.267,200.012 210.800 M206.951 211.500 C 206.828 211.885,206.583 212.560,206.407 213.000 C 204.968 216.587,204.400 218.182,204.400 218.633 C 204.400 218.923,204.085 219.360,203.700 219.603 C 203.294 219.860,203.240 219.985,203.571 219.899 C 204.255 219.724,204.473 219.327,205.607 216.200 C 206.086 214.880,206.624 213.440,206.803 213.000 C 207.375 211.591,207.580 210.800,207.375 210.800 C 207.265 210.800,207.074 211.115,206.951 211.500 M183.600 219.021 C 183.600 219.619,185.743 225.591,185.900 225.433 C 185.982 225.352,185.574 223.873,184.995 222.146 C 183.979 219.120,183.600 218.271,183.600 219.021 M220.600 224.000 C 220.450 224.473,220.417 224.950,220.527 225.060 C 220.637 225.170,220.850 224.873,221.000 224.400 C 221.150 223.927,221.183 223.450,221.073 223.340 C 220.963 223.230,220.750 223.527,220.600 224.000 M186.261 226.800 C 186.717 228.602,187.652 230.803,187.384 229.444 C 187.259 228.808,186.898 227.728,186.582 227.044 C 186.151 226.108,186.071 226.048,186.261 226.800 M188.037 232.027 C 188.270 232.782,188.640 234.002,188.860 234.738 C 189.079 235.473,189.337 235.996,189.434 235.899 C 189.654 235.679,188.383 231.534,187.940 231.027 C 187.761 230.822,187.804 231.272,188.037 232.027 M215.067 239.467 C 214.920 239.613,214.811 240.108,214.825 240.567 C 214.849 241.333,214.882 241.323,215.234 240.442 C 215.626 239.463,215.544 238.989,215.067 239.467 M213.022 245.397 C 212.599 246.505,211.915 247.437,211.265 247.790 C 210.679 248.108,210.347 248.375,210.526 248.384 C 211.721 248.443,214.608 244.474,213.891 243.758 C 213.795 243.661,213.404 244.399,213.022 245.397 M192.812 245.864 C 192.797 246.426,195.072 248.401,195.731 248.399 C 195.989 248.398,195.631 248.050,194.935 247.626 C 194.239 247.202,193.480 246.527,193.247 246.127 C 193.015 245.727,192.819 245.609,192.812 245.864 M241.200 246.936 C 241.200 247.503,243.153 248.581,243.518 248.215 C 243.637 248.097,243.523 248.000,243.267 248.000 C 243.010 248.000,242.440 247.640,242.000 247.200 C 241.463 246.663,241.200 246.576,241.200 246.936 M259.200 246.721 C 259.200 246.970,258.705 247.443,258.100 247.771 C 257.495 248.099,257.205 248.375,257.456 248.384 C 258.153 248.408,259.840 246.909,259.500 246.568 C 259.335 246.402,259.200 246.471,259.200 246.721 M147.600 247.157 C 147.600 247.664,149.177 248.556,149.501 248.232 C 149.629 248.105,149.536 248.000,149.295 248.000 C 149.054 248.000,148.574 247.717,148.229 247.371 C 147.883 247.026,147.600 246.929,147.600 247.157 M151.279 248.860 C 152.454 249.192,160.622 249.186,162.179 248.853 C 162.827 248.714,160.433 248.600,156.858 248.600 C 153.282 248.600,150.772 248.717,151.279 248.860 M197.421 248.853 C 198.978 249.186,207.945 249.192,209.121 248.860 C 209.628 248.717,206.937 248.600,203.142 248.600 C 199.347 248.600,196.772 248.714,197.421 248.853 M244.876 248.860 C 246.054 249.192,254.223 249.186,255.777 248.853 C 256.425 248.714,254.029 248.600,250.454 248.600 C 246.878 248.600,244.368 248.717,244.876 248.860 " stroke="none" fill="#848484" fill-rule="evenodd"></path></g></svg>